<svg id="visual" viewBox="0 0 900 600" width="900" height="600" xmlns="http://www.w3.org/2000/svg" xmlns:xlink="http://www.w3.org/1999/xlink" version="1.1"><rect x="0" y="0" width="900" height="600" fill="#000000"></rect><path d="M0 219L50 221.5C100 224 200 229 300 239.2C400 249.3 500 264.7 600 259C700 253.3 800 226.7 850 213.3L900 200L900 601L850 601C800 601 700 601 600 601C500 601 400 601 300 601C200 601 100 601 50 601L0 601Z" fill="#5a4fcf"></path><path d="M0 373L50 367.7C100 362.3 200 351.7 300 354C400 356.3 500 371.7 600 373.5C700 375.3 800 363.7 850 357.8L900 352L900 601L850 601C800 601 700 601 600 601C500 601 400 601 300 601C200 601 100 601 50 601L0 601Z" fill="#293a86"></path><path d="M0 502L50 502.2C100 502.3 200 502.7 300 496.8C400 491 500 479 600 476.2C700 473.3 800 479.7 850 482.8L900 486L900 601L850 601C800 601 700 601 600 601C500 601 400 601 300 601C200 601 100 601 50 601L0 601Z" fill="#16213e"></path></svg>